<svg xmlns="http://www.w3.org/2000/svg" viewBox="0 0 160 160">
  <circle cx="80" cy="84" r="66" fill="#F3F4F6" stroke="#9CA3AF" stroke-width="4"/>
  <polygon points="34,40 58,20 62,56" fill="#F3F4F6" stroke="#9CA3AF" stroke-width="4"/>
  <polygon points="126,40 102,20 98,56" fill="#F3F4F6" stroke="#9CA3AF" stroke-width="4"/>
  <path d="M 52 68 C 52 60 40 60 40 68 C 40 76 52 84 52 84 C 52 84 64 76 64 68 C 64 60 52 60 52 68 Z" fill="#EF4444"/>
  <path d="M 108 68 C 108 60 96 60 96 68 C 96 76 108 84 108 84 C 108 84 120 76 120 68 C 120 60 108 60 108 68 Z" fill="#EF4444"/>
  <ellipse cx="80" cy="95" rx="6" ry="5" fill="#F472B6"/>
  <path d="M 72 102 Q 80 110 88 102" stroke="#4B5563" stroke-width="3" fill="none"/>
</svg>